<?xml version="1.0" encoding="utf-8"?>
<!-- Generator: Adobe Illustrator 19.1.0, SVG Export Plug-In . SVG Version: 6.00 Build 0)  -->
<svg version="1.1" xmlns="http://www.w3.org/2000/svg" xmlns:xlink="http://www.w3.org/1999/xlink" x="0px" y="0px"
	 viewBox="0 0 800 800" style="enable-background:new 0 0 800 800;" xml:space="preserve">
<style type="text/css">
	.st0{fill:#FFFFFF;}
	.st1{fill:none;stroke:#000000;stroke-width:700;stroke-miterlimit:10;stroke-dasharray:100.2228,100.2228;}
	.st2{display:none;}
	.st3{display:inline;fill:#FFFFFF;stroke:#000000;stroke-width:8;stroke-miterlimit:10;}
	.st4{fill:#E16A26;stroke:#000000;stroke-width:8;stroke-miterlimit:10;}
	.st5{fill:#5D5E5E;}
</style>
<g id="Sunburst">
	<g>
		<circle class="st0" cx="400" cy="285.5" r="478.5"/>
		<circle class="st1" cx="400" cy="285.5" r="478.5"/>
	</g>
</g>
<g id="Cover_Sunburst">
	<polygon class="st0" points="426.5,354 375.2,354 222.8,826.5 589,826.5 	"/>
</g>
<g id="i_1_" class="st2">
	<path class="st3" d="M455.2,681.9c0-104.7-24.6-281.9-55-281.9s-55,178.6-55,283.3s24.6,95.7,55,95.7S455.2,786.5,455.2,681.9z"/>
</g>
<g id="dot">
	<circle class="st4" cx="400" cy="285.5" r="63"/>
</g>
<g id="Hide_Circle">
	<path class="st0" d="M0,0l0.2,800h800V0H0z M400.2,800c-220.9,0-400-179.1-400-400S179.3,0,400.2,0s400,179.1,400,400
		S621.2,800,400.2,800z"/>
</g>
<g id="Another_i">
	<polygon class="st4" points="421.2,372.8 380,372.8 337,800 463,800 	"/>
</g>
<g id="Hide_Layer">
	<path class="st5" d="M-1051-811v2440h2980V-811H-1051z M800,800H0V0h800V800z"/>
</g>
</svg>
